<?xml version="1.0" encoding="utf-8"?>
<!-- Generator: Adobe Illustrator 26.0.2, SVG Export Plug-In . SVG Version: 6.00 Build 0)  -->
<svg version="1.1" id="Layer_3" xmlns="http://www.w3.org/2000/svg" xmlns:xlink="http://www.w3.org/1999/xlink" x="0px" y="0px"
	 viewBox="0 0 64 64" style="enable-background:new 0 0 64 64;" xml:space="preserve">
<g>
	<rect x="6" y="2" style="fill:#E3E8F6;" width="40" height="52"/>
	<rect x="2" y="6" style="fill:#E3E8F6;" width="40" height="52"/>
	<path style="fill:#F8F7FE;" d="M42,6H2v16.5C2,42.106,16.998,58,35.5,58H42V6z"/>
	<g>
		<rect x="13" y="27" style="fill:#3079E6;" width="26" height="2"/>
	</g>
	<g>
		<rect x="13" y="31" style="fill:#3079E6;" width="26" height="2"/>
	</g>
	<g>
		<rect x="13" y="35" style="fill:#3079E6;" width="26" height="2"/>
	</g>
	<g>
		<rect x="13" y="39" style="fill:#3079E6;" width="26" height="2"/>
	</g>
	<g>
		<rect x="13" y="43" style="fill:#3079E6;" width="26" height="2"/>
	</g>
	<g>
		<rect x="13" y="47" style="fill:#3079E6;" width="17" height="2"/>
	</g>
	<rect x="6" y="28" style="fill:#2763BB;" width="4" height="4"/>
	<g>
		<rect x="32" y="47" style="fill:#3079E6;" width="2" height="2"/>
	</g>
	<g>
		<path style="fill:#3079E6;" d="M22,9c-4.411,0-8,3.589-8,8s3.589,8,8,8s8-3.589,8-8S26.411,9,22,9z M22,23c-3.309,0-6-2.691-6-6
			s2.691-6,6-6s6,2.691,6,6S25.309,23,22,23z"/>
		<path style="fill:#3079E6;" d="M22,12c-1.654,0-3,1.346-3,3v6h2v-2h2v2h2v-6C25,13.346,23.654,12,22,12z M21,17v-2
			c0-0.551,0.448-1,1-1s1,0.449,1,1v2H21z"/>
		<polygon style="fill:#3079E6;" points="36,11 34,11 34,9 32,9 32,11 29.999,11 29.999,13 32,13 32,15 34,15 34,13 36,13 		"/>
	</g>
	<polygon style="fill:#3079E6;" points="62,31 59,28 32,55 28,62 35,58 	"/>
	<polygon style="fill:#2763BB;" points="32,55 35,58 28,62 	"/>
	
		<rect x="52.654" y="30.629" transform="matrix(0.7071 -0.7071 0.7071 0.7071 -6.3896 50.0741)" style="fill:#2763BB;" width="9.192" height="4.243"/>
	<path style="fill:#3079E6;" d="M10,28H6.034C6.201,30.247,7.457,32,9,32h1V28z"/>
	<rect x="6" y="36" style="fill:#2763BB;" width="4" height="4"/>
	<path style="fill:#3079E6;" d="M10,36H6.034C6.201,38.247,7.457,40,9,40h1V36z"/>
	<rect x="6" y="44" style="fill:#2763BB;" width="4" height="4"/>
	<path style="fill:#3079E6;" d="M10,44H6.034C6.201,46.247,7.457,48,9,48h1V44z"/>
</g>
</svg>
