<?xml version="1.0" encoding="UTF-8" standalone="no"?> <svg xmlns="http://www.w3.org/2000/svg" viewBox="0 0 512 512"><g id="flat"><rect x="88" y="88" width="336" height="400" style="fill:#e08122"/><rect x="88" y="312" width="336" height="176" style="fill:#e08122"/><rect x="144" y="408" width="224" height="80" style="fill:#fd9226"/><rect x="88" y="88" width="336" height="16" style="fill:#cf771f"/><path d="M272,456v32H240V456a16,16,0,1,1,32,0Z" style="fill:#e08122"/><path d="M336,456v32H304V456a16,16,0,1,1,32,0Z" style="fill:#e08122"/><path d="M208,456v32H176V456a16,16,0,1,1,32,0Z" style="fill:#e08122"/><path d="M264,456v32H240V456a16.012,16.012,0,0,1,12-15.5A15.987,15.987,0,0,1,264,456Z" style="fill:#cd761f"/><path d="M328,456v32H304V456a16.012,16.012,0,0,1,12-15.5A15.987,15.987,0,0,1,328,456Z" style="fill:#cd761f"/><path d="M200,456v32H176V456a16.012,16.012,0,0,1,12-15.5A15.987,15.987,0,0,1,200,456Z" style="fill:#cd761f"/><rect x="128" y="376" width="256" height="32" style="fill:#ebebeb"/><path d="M232,262.18V280H200V262.18a14.2,14.2,0,0,1,12-14.02,15.644,15.644,0,0,1,2.18-.16h3.64A14.182,14.182,0,0,1,232,262.18Z" style="fill:#6cbae5"/><path d="M152,262.18V280H120V262.18a14.2,14.2,0,0,1,12-14.02,15.644,15.644,0,0,1,2.18-.16h3.64A14.182,14.182,0,0,1,152,262.18Z" style="fill:#6cbae5"/><path d="M392,262.18V280H360V262.18a14.2,14.2,0,0,1,12-14.02,15.644,15.644,0,0,1,2.18-.16h3.64A14.182,14.182,0,0,1,392,262.18Z" style="fill:#6cbae5"/><path d="M312,262.18V280H280V262.18a14.2,14.2,0,0,1,12-14.02,15.644,15.644,0,0,1,2.18-.16h3.64A14.182,14.182,0,0,1,312,262.18Z" style="fill:#6cbae5"/><path d="M232,198.18V216H200V198.18a14.2,14.2,0,0,1,12-14.02,15.644,15.644,0,0,1,2.18-.16h3.64A14.182,14.182,0,0,1,232,198.18Z" style="fill:#6cbae5"/><path d="M152,198.18V216H120V198.18a14.2,14.2,0,0,1,12-14.02,15.644,15.644,0,0,1,2.18-.16h3.64A14.182,14.182,0,0,1,152,198.18Z" style="fill:#6cbae5"/><path d="M392,198.18V216H360V198.18a14.2,14.2,0,0,1,12-14.02,15.644,15.644,0,0,1,2.18-.16h3.64A14.182,14.182,0,0,1,392,198.18Z" style="fill:#6cbae5"/><path d="M312,198.18V216H280V198.18a14.2,14.2,0,0,1,12-14.02,15.644,15.644,0,0,1,2.18-.16h3.64A14.182,14.182,0,0,1,312,198.18Z" style="fill:#6cbae5"/><path d="M232,134.18V152H200V134.18a14.2,14.2,0,0,1,12-14.02,15.644,15.644,0,0,1,2.18-.16h3.64A14.182,14.182,0,0,1,232,134.18Z" style="fill:#6cbae5"/><path d="M152,134.18V152H120V134.18a14.2,14.2,0,0,1,12-14.02,15.644,15.644,0,0,1,2.18-.16h3.64A14.182,14.182,0,0,1,152,134.18Z" style="fill:#6cbae5"/><path d="M392,134.18V152H360V134.18a14.2,14.2,0,0,1,12-14.02,15.644,15.644,0,0,1,2.18-.16h3.64A14.182,14.182,0,0,1,392,134.18Z" style="fill:#6cbae5"/><path d="M312,134.18V152H280V134.18a14.2,14.2,0,0,1,12-14.02,15.644,15.644,0,0,1,2.18-.16h3.64A14.182,14.182,0,0,1,312,134.18Z" style="fill:#6cbae5"/><path d="M224,262.18V280H200V262.18a14.2,14.2,0,0,1,12-14.02A14.2,14.2,0,0,1,224,262.18Z" style="fill:#8aced8"/><path d="M144,262.18V280H120V262.18a14.2,14.2,0,0,1,12-14.02A14.2,14.2,0,0,1,144,262.18Z" style="fill:#8aced8"/><path d="M384,262.18V280H360V262.18a14.2,14.2,0,0,1,12-14.02A14.2,14.2,0,0,1,384,262.18Z" style="fill:#8aced8"/><path d="M304,262.18V280H280V262.18a14.2,14.2,0,0,1,12-14.02A14.2,14.2,0,0,1,304,262.18Z" style="fill:#8aced8"/><path d="M224,198.18V216H200V198.18a14.2,14.2,0,0,1,12-14.02A14.2,14.2,0,0,1,224,198.18Z" style="fill:#8aced8"/><path d="M144,198.18V216H120V198.18a14.2,14.2,0,0,1,12-14.02A14.2,14.2,0,0,1,144,198.18Z" style="fill:#8aced8"/><path d="M384,198.18V216H360V198.18a14.2,14.2,0,0,1,12-14.02A14.2,14.2,0,0,1,384,198.18Z" style="fill:#8aced8"/><path d="M304,198.18V216H280V198.18a14.2,14.2,0,0,1,12-14.02A14.2,14.2,0,0,1,304,198.18Z" style="fill:#8aced8"/><path d="M224,134.18V152H200V134.18a14.2,14.2,0,0,1,12-14.02A14.2,14.2,0,0,1,224,134.18Z" style="fill:#8aced8"/><path d="M144,134.18V152H120V134.18a14.2,14.2,0,0,1,12-14.02A14.2,14.2,0,0,1,144,134.18Z" style="fill:#8aced8"/><path d="M384,134.18V152H360V134.18a14.2,14.2,0,0,1,12-14.02A14.2,14.2,0,0,1,384,134.18Z" style="fill:#8aced8"/><path d="M304,134.18V152H280V134.18a14.2,14.2,0,0,1,12-14.02A14.2,14.2,0,0,1,304,134.18Z" style="fill:#8aced8"/><rect x="64" y="24" width="384" height="32" style="fill:#ebebeb"/><polygon points="352 376 160 376 176 344 336 344 352 376" style="fill:#fd9226"/><rect x="80" y="56" width="352" height="32" style="fill:#ebebeb"/><rect x="80" y="56" width="352" height="16" style="fill:#cdcdcd"/><path d="M465.312,496a8,8,0,0,1-8-8V456a8,8,0,0,1,16,0v32A8,8,0,0,1,465.312,496Z" style="fill:#985713"/><path d="M48,496a8,8,0,0,1-8-8V456a8,8,0,0,1,16,0v32A8,8,0,0,1,48,496Z" style="fill:#985713"/><rect x="368" y="456" width="56" height="32" style="fill:#5e8569"/><rect x="88" y="456" width="56" height="32" style="fill:#5e8569"/><rect x="64" y="304" width="384" height="16" style="fill:#ebebeb"/><path d="M465.311,384l-20.63,58.683A10,10,0,0,0,454.115,456h20.249a10,10,0,0,0,9.538-13Z" style="fill:#6b9777"/><path d="M46.689,384,28.1,443a10,10,0,0,0,9.538,13H57.885a10,10,0,0,0,9.434-13.317Z" style="fill:#6b9777"/><rect x="16" y="480" width="480" height="16" style="fill:#d9d9d9"/><rect x="88" y="320" width="336" height="8" style="fill:#d17920"/><rect x="144" y="408" width="224" height="8" style="fill:#e08122"/></g></svg>