<?xml version="1.0" encoding="UTF-8" standalone="no"?> <svg xmlns="http://www.w3.org/2000/svg" viewBox="0 0 48 48"><defs><style>.cls-1{fill:#e67244;}.cls-2{fill:#a83d20;}.cls-3{fill:#00cf66;}.cls-4{fill:#fd3730;}.cls-5{fill:#fac100;}.cls-6{fill:#009ae0;}.cls-7{fill:#eaeff0;}.cls-8{fill:#c6512b;}</style></defs><title>Bookshelf</title><g id="Shelf"><path class="cls-1" d="M37,46H11a5.006,5.006,0,0,1-5-5V7a5.006,5.006,0,0,1,5-5H37a5.006,5.006,0,0,1,5,5V41A5.006,5.006,0,0,1,37,46Z"/><rect class="cls-2" x="9" y="5" width="30" height="38" rx="2"/><rect class="cls-3" x="21" y="22" width="4" height="10" rx="1"/><rect class="cls-4" x="32" y="22" width="4" height="10" rx="1"/><rect class="cls-3" x="28" y="22" width="4" height="10" rx="1"/><rect class="cls-5" x="25" y="24" width="3" height="8" rx="1"/><rect class="cls-6" x="36" y="24" width="3" height="8" rx="1"/><rect class="cls-6" x="18" y="24" width="3" height="8" rx="1"/><rect class="cls-7" x="32" y="24" width="4" height="1"/><rect class="cls-7" x="21" y="24" width="4" height="1"/><rect class="cls-7" x="18" y="26" width="3" height="1"/><rect class="cls-7" x="25" y="26" width="3" height="1"/><rect class="cls-3" x="9" y="8" width="4" height="10" rx="1"/><rect class="cls-5" x="20" y="8" width="4" height="10" rx="1"/><rect class="cls-4" x="16" y="8" width="4" height="10" rx="1"/><rect class="cls-6" x="13" y="10" width="3" height="8" rx="1"/><rect class="cls-3" x="24" y="10" width="3" height="8" rx="1"/><rect class="cls-4" x="27" y="8" width="4" height="10" rx="1"/><rect class="cls-7" x="9" y="10" width="4" height="1"/><rect class="cls-7" x="16" y="10" width="4" height="1"/><rect class="cls-7" x="27" y="10" width="4" height="1"/><rect class="cls-7" x="13" y="12" width="3" height="1"/><rect class="cls-7" x="24" y="12" width="3" height="1"/><path class="cls-8" d="M37,43H11a2,2,0,0,1-2-2V32H39v9A2,2,0,0,1,37,43Z"/><path class="cls-1" d="M39,19H9a1,1,0,0,1,0-2H39a1,1,0,0,1,0,2Z"/><path class="cls-1" d="M39,31H9a1,1,0,0,0,0,2H23V44a1,1,0,0,0,2,0V33H39a1,1,0,0,0,0-2Z"/><circle class="cls-2" cx="27" cy="38" r="1"/><circle class="cls-2" cx="21" cy="38" r="1"/></g></svg>