<?xml version="1.0" standalone="no"?>
<!DOCTYPE svg PUBLIC "-//W3C//DTD SVG 20010904//EN"
 "http://www.w3.org/TR/2001/REC-SVG-20010904/DTD/svg10.dtd">
<svg version="1.0" xmlns="http://www.w3.org/2000/svg"
 width="865.000000pt" height="699.000000pt" viewBox="0 0 865.000000 699.000000"
 preserveAspectRatio="xMidYMid meet">

<g transform="translate(0.000000,699.000000) scale(0.100000,-0.100000)"
fill="#000000" stroke="none">
<path d="M4005 6939 c-218 -22 -506 -85 -689 -149 -890 -315 -1566 -1011
-1831 -1887 -120 -393 -148 -859 -79 -1273 74 -440 261 -872 536 -1232 l59
-78 54 0 55 0 -63 78 c-128 159 -261 375 -354 577 -251 547 -309 1187 -162
1779 254 1023 1099 1827 2154 2050 227 47 353 60 610 60 255 0 372 -12 597
-58 679 -142 1273 -517 1693 -1071 115 -151 184 -264 270 -440 295 -601 360
-1247 190 -1890 -96 -366 -245 -668 -487 -983 l-79 -102 54 0 54 0 65 87 c231
310 403 671 488 1027 168 695 63 1436 -290 2053 -285 495 -714 897 -1235 1153
-309 152 -570 234 -919 286 -121 18 -560 27 -691 13z"/>
<path d="M4157 6322 l-68 -57 73 -5 73 -5 1 -47 1 -48 -142 0 -143 0 -73 -57
-74 -58 218 -3 217 -2 0 -55 0 -55 -288 0 -288 0 -62 -47 c-34 -27 -62 -52
-64 -57 -2 -5 153 -8 350 -7 l352 2 0 -60 0 -61 -439 0 -439 0 -75 -62 -76
-63 515 -3 514 -2 0 -65 0 -65 -604 0 -603 0 -66 -50 c-36 -27 -68 -54 -72
-60 -4 -7 424 -10 1331 -10 736 0 1335 2 1333 4 -47 42 -1321 1056 -1327 1055
-4 0 -38 -26 -75 -57z"/>
<path d="M3200 5200 c-232 -29 -447 -141 -571 -296 -206 -259 -180 -583 73
-927 99 -134 500 -608 514 -608 4 0 15 39 25 85 92 456 337 679 662 602 l57
-13 -27 36 c-48 65 -185 223 -321 370 -186 202 -333 440 -315 509 22 85 271
62 441 -42 32 -19 67 -45 78 -57 10 -12 38 -34 62 -49 36 -24 48 -27 79 -19
20 4 45 18 55 31 86 111 -145 300 -447 364 -89 19 -268 26 -365 14z"/>
<path d="M5025 5199 c-330 -41 -591 -233 -681 -499 -29 -85 -27 -280 4 -380
33 -104 103 -235 183 -345 l68 -92 58 57 c91 88 194 129 323 130 266 0 429
-190 519 -603 15 -67 18 -103 12 -116 -12 -21 -324 -156 -344 -148 -11 4 -12
-2 -4 -39 10 -40 8 -47 -12 -67 -20 -20 -32 -22 -124 -22 -72 1 -118 6 -155
19 -29 10 -55 16 -58 14 -2 -3 -7 -48 -11 -101 l-6 -95 39 -10 c113 -29 361
-33 495 -8 415 78 661 322 662 656 0 107 -30 202 -109 338 -99 171 -192 289
-451 568 -125 134 -260 329 -299 430 -21 54 -12 92 26 112 34 18 189 10 255
-13 107 -37 147 -61 281 -169 50 -41 98 -40 136 3 36 40 36 77 0 127 -70 95
-195 172 -358 218 -151 43 -295 54 -449 35z"/>
<path d="M3678 3971 c-77 -25 -119 -53 -174 -114 -110 -122 -185 -347 -215
-641 -17 -176 -7 -558 20 -707 56 -316 168 -527 316 -595 78 -36 216 -45 294
-19 95 31 184 132 243 278 32 78 73 234 83 319 l6 53 -104 63 c-58 34 -107 62
-110 62 -2 0 -7 -21 -10 -47 -9 -76 -54 -206 -87 -252 -48 -65 -83 -83 -161
-79 -54 3 -73 9 -102 31 -79 60 -119 176 -137 391 -45 565 65 899 286 863 74
-12 139 -89 179 -214 l20 -62 105 46 c58 25 107 47 109 49 2 2 -7 50 -21 106
-30 121 -77 244 -120 311 -42 65 -119 132 -176 152 -74 26 -177 29 -244 6z"/>
<path d="M4890 3976 c-136 -30 -238 -131 -310 -306 -61 -149 -96 -327 -109
-566 -17 -311 15 -629 85 -829 51 -146 50 -140 17 -143 -18 -1 -47 -21 -88
-61 -74 -72 -409 -326 -489 -371 -78 -44 -66 -23 56 97 86 85 96 92 138 95 33
2 46 8 48 21 3 13 -3 17 -24 17 l-28 0 42 43 c23 24 39 46 36 50 -4 4 -21 7
-39 7 -24 0 -42 -11 -79 -49 -34 -35 -59 -51 -80 -53 -22 -2 -32 -9 -34 -23
-2 -11 -39 -46 -83 -78 -54 -40 -79 -65 -79 -79 0 -14 5 -18 15 -14 19 7 19
-3 0 -28 -21 -28 -19 -63 6 -77 39 -20 133 28 289 150 31 24 20 9 -38 -50 -45
-47 -79 -88 -76 -92 18 -18 75 -6 106 22 36 31 153 108 206 135 27 14 24 9
-23 -37 -56 -54 -69 -89 -43 -115 19 -19 51 -14 113 17 60 30 75 31 75 6 0
-28 47 -48 96 -41 76 10 224 98 224 133 0 23 -28 14 -82 -27 -67 -51 -177 -86
-192 -62 -12 19 25 52 58 52 96 0 181 54 156 99 -9 17 -20 21 -63 21 -63 0
-110 -21 -202 -90 -60 -44 -123 -80 -143 -80 -3 0 20 18 51 41 57 40 72 65 65
110 -4 31 -53 37 -100 14 -22 -12 14 31 111 129 l145 145 27 -47 c63 -110 172
-173 310 -180 156 -8 253 44 332 176 61 101 120 286 142 443 l7 45 -108 62
c-59 35 -108 61 -108 60 -1 -2 -12 -47 -24 -101 -21 -95 -57 -183 -90 -221
-28 -30 -90 -57 -135 -57 -189 -3 -270 227 -253 726 10 316 54 459 165 536 49
34 133 34 185 -1 49 -33 92 -100 117 -182 l21 -67 81 36 c45 19 94 40 110 45
15 5 27 11 27 13 0 17 -36 156 -57 220 -73 224 -172 336 -323 365 -65 12 -90
12 -160 -4z m-170 -2175 c0 -9 -80 -44 -86 -38 -9 8 28 29 84 46 1 1 2 -3 2
-8z"/>
<path d="M3755 3485 c-43 -22 -75 -74 -101 -165 -22 -74 -29 -139 -38 -328
l-4 -74 27 7 c60 15 179 71 247 117 67 45 152 127 174 168 9 16 6 16 -35 1
-56 -20 -70 -9 -84 65 -31 165 -106 249 -186 209z"/>
<path d="M4951 3491 c-12 -7 -2 -24 46 -78 33 -37 77 -90 98 -118 l38 -50 -8
45 c-20 132 -113 239 -174 201z"/>
<path d="M2509 3361 c-72 -73 -15 -178 171 -312 126 -91 346 -169 476 -169
l34 0 1 63 c1 34 2 76 4 92 l2 31 -75 12 c-142 23 -299 105 -420 220 -42 40
-85 77 -94 82 -31 18 -69 11 -99 -19z"/>
<path d="M4351 3374 c-59 -42 -58 -119 3 -190 l33 -38 8 79 c4 44 10 99 15
123 7 39 6 42 -14 42 -12 0 -32 -7 -45 -16z"/>
<path d="M2055 2258 c17 -18 47 -52 69 -75 22 -24 38 -44 35 -46 -2 -1 -94
-18 -203 -36 -110 -18 -205 -35 -213 -38 -10 -4 -13 -52 -15 -206 l-3 -202
-105 -21 c-247 -50 -323 -66 -470 -100 -221 -52 -684 -174 -890 -235 -96 -28
-185 -54 -198 -56 -12 -3 -22 -8 -22 -12 0 -4 62 -24 138 -45 134 -37 376
-104 736 -206 99 -27 181 -52 184 -55 3 -2 -6 -13 -20 -24 -13 -11 -150 -122
-304 -248 -154 -125 -382 -311 -506 -413 -183 -149 -223 -186 -204 -188 24 -3
49 3 351 91 724 211 1541 375 2327 468 95 11 174 21 175 23 2 2 -17 9 -42 15
l-45 11 0 185 c0 170 1 185 18 185 9 0 84 7 165 15 431 43 812 60 1332 59 503
-1 945 -23 1393 -70 l62 -7 0 -183 0 -184 -45 -11 c-25 -6 -44 -13 -42 -15 1
-2 79 -12 172 -24 813 -97 1571 -249 2295 -457 124 -35 256 -73 294 -84 132
-38 129 -26 -27 101 -78 63 -267 218 -422 344 -154 125 -328 267 -387 315 -59
47 -107 89 -108 93 0 4 26 15 58 23 31 9 111 32 177 50 66 19 188 52 270 75
83 23 177 49 210 59 33 10 124 35 202 57 79 21 143 41 143 44 0 4 -233 74
-460 137 -360 100 -756 195 -1061 255 l-169 33 0 202 c0 202 0 203 -22 207
-65 14 -197 38 -313 57 -71 11 -131 21 -132 23 -1 1 27 34 63 74 l66 72 -55 0
c-54 0 -55 -1 -118 -65 l-64 -66 -275 35 c-299 39 -571 66 -582 59 -16 -9 -8
-43 10 -43 9 -1 33 -3 52 -5 19 -3 109 -12 200 -21 239 -23 568 -67 863 -116
l257 -43 0 -553 0 -554 -27 6 c-181 39 -805 128 -1123 160 -519 52 -709 61
-1385 61 -676 0 -868 -9 -1385 -61 -318 -32 -1003 -129 -1126 -160 l-24 -6 0
554 0 553 258 43 c378 63 723 107 1017 132 233 19 237 20 233 38 -5 24 -60 26
-261 7 -183 -17 -723 -82 -745 -90 -7 -3 -42 27 -79 65 l-65 70 -56 0 -56 0
29 -32z m5316 -748 c240 -54 661 -162 849 -217 85 -25 166 -49 180 -52 40 -12
86 2 -705 -217 -66 -19 -149 -41 -185 -50 -83 -21 -90 -28 -54 -56 16 -13 67
-55 114 -93 47 -39 137 -113 201 -165 64 -52 232 -189 373 -304 141 -115 255
-211 253 -213 -2 -2 -44 8 -93 23 -202 59 -411 115 -609 163 -115 28 -219 54
-230 56 -304 76 -1002 201 -1342 242 -79 10 -143 20 -143 24 0 3 26 11 58 18
66 15 258 61 661 157 262 63 281 69 243 77 l-42 8 0 348 0 348 148 -29 c81
-16 226 -46 323 -68z m-5641 -254 l0 -343 -42 -9 -43 -9 110 -27 c61 -15 207
-50 325 -78 118 -28 249 -59 290 -69 41 -11 119 -29 172 -41 54 -12 100 -25
103 -29 2 -5 -30 -11 -73 -15 -42 -4 -194 -25 -337 -47 -229 -35 -343 -55
-655 -114 -312 -59 -898 -203 -1274 -314 -38 -11 -71 -19 -73 -17 -3 2 42 41
99 87 57 46 229 187 383 313 154 127 324 265 377 308 87 70 117 98 105 98 -2
0 -49 13 -103 29 -55 16 -133 38 -174 49 -41 11 -131 36 -200 55 -69 19 -208
58 -310 87 -102 28 -189 55 -193 59 -11 11 520 160 818 229 321 76 624 139
673 141 l22 1 0 -344z m1050 -406 c0 -151 -2 -170 -16 -170 -9 0 -89 18 -178
39 -88 21 -279 68 -424 102 -172 42 -257 66 -245 71 23 9 343 61 548 89 88 11
185 25 215 29 30 4 65 8 78 9 l22 1 0 -170z m3195 155 c55 -7 141 -19 190 -25
128 -15 527 -79 548 -88 13 -5 -19 -17 -100 -36 -302 -72 -449 -108 -586 -140
-81 -20 -154 -36 -162 -36 -13 0 -15 26 -15 170 0 129 3 170 13 170 6 0 57 -7
112 -15z"/>
<path d="M4287 2283 c-19 -18 1 -23 88 -23 80 0 93 2 89 15 -5 12 -25 15 -88
15 -46 0 -86 -3 -89 -7z"/>
<path d="M2955 1904 c-19 -20 -19 -50 0 -58 20 -7 56 29 49 48 -9 22 -32 27
-49 10z"/>
<path d="M3617 1834 c-3 -4 -34 -7 -69 -9 -72 -2 -141 -33 -198 -88 -86 -83
-173 -157 -178 -152 -3 2 14 21 37 42 47 41 91 109 91 140 0 56 -59 53 -139
-8 -32 -24 -51 -34 -47 -24 8 23 -11 55 -33 55 -30 0 -101 -61 -190 -164 -110
-127 -142 -144 -66 -35 32 46 71 100 87 120 15 20 28 40 28 43 0 3 -18 6 -41
6 -36 0 -47 -6 -108 -67 -37 -38 -100 -104 -140 -148 -80 -88 -80 -87 -4 34
52 84 68 141 42 156 -5 4 -8 12 -6 18 6 17 -11 47 -27 47 -18 0 -46 -33 -46
-55 0 -10 -24 -45 -53 -79 -29 -34 -79 -95 -110 -136 -123 -163 -126 -159 -22
24 41 73 75 137 75 144 0 15 -21 15 -57 1 -15 -7 -46 -12 -69 -13 -52 -2 -112
-41 -154 -98 -17 -24 -62 -92 -101 -151 -67 -102 -148 -184 -157 -158 -10 29
54 188 106 264 l19 28 6 -30 c5 -21 12 -31 25 -31 56 0 84 119 32 135 -59 19
-168 -80 -210 -192 -26 -69 -32 -181 -11 -206 31 -38 97 -5 166 83 44 56 55
61 55 26 0 -27 24 -56 46 -56 8 0 31 17 51 39 37 38 37 38 54 17 15 -19 19
-19 43 -7 14 8 47 42 73 75 159 206 256 319 195 225 -47 -70 -82 -154 -82
-196 0 -39 2 -43 25 -43 26 0 67 36 149 130 l47 55 -16 -42 c-23 -59 -17 -87
20 -91 26 -3 43 10 154 125 69 70 121 121 115 113 -107 -146 -134 -185 -134
-192 0 -4 14 -8 31 -8 25 0 42 12 92 67 72 76 208 196 215 188 3 -3 -13 -24
-35 -48 -47 -49 -73 -95 -73 -132 0 -52 52 -46 128 15 l51 41 7 -25 c4 -18 16
-28 35 -34 27 -7 28 -9 15 -27 -8 -12 -53 -44 -100 -73 -186 -114 -300 -270
-216 -297 46 -15 117 47 295 254 46 54 103 108 135 129 64 41 159 113 213 161
29 26 35 37 26 47 -9 11 -20 7 -58 -24 -25 -21 -64 -51 -86 -67 l-40 -29 30
34 c16 19 52 58 79 87 26 28 45 56 42 62 -8 12 -49 15 -59 5z m-77 -57 c0 -23
-157 -167 -183 -167 -27 0 66 116 122 152 50 31 61 34 61 15z m-1166 -154
c-13 -56 -152 -273 -174 -273 -23 0 51 168 104 240 21 28 58 58 74 60 1 0 -1
-12 -4 -27z m847 -257 c-53 -69 -148 -159 -160 -152 -28 17 35 98 128 167 36
26 67 46 70 44 2 -3 -15 -29 -38 -59z"/>
<path d="M5100 1808 c-52 -9 -119 -52 -137 -88 -17 -33 -16 -92 1 -116 21 -28
116 -26 173 4 50 26 53 26 53 8 0 -7 9 -25 21 -40 23 -30 59 -34 103 -11 36
19 36 19 36 -5 0 -10 8 -24 18 -29 35 -19 115 24 237 128 51 44 75 59 75 48 0
-2 -18 -27 -40 -56 -44 -60 -62 -130 -39 -157 18 -22 68 -12 122 25 l44 30 6
-40 c6 -49 19 -65 62 -79 43 -14 102 1 143 35 l29 25 6 -43 c8 -62 45 -91 109
-85 61 6 94 30 196 140 45 48 84 83 87 79 2 -5 -14 -41 -37 -81 -34 -59 -43
-84 -46 -134 -5 -72 10 -93 55 -81 35 8 183 159 183 185 0 34 -24 22 -73 -35
-52 -60 -114 -111 -123 -102 -4 3 21 51 55 105 65 106 75 148 43 180 -14 14
-16 22 -8 35 8 12 8 22 0 35 -26 40 -74 17 -74 -35 0 -35 -192 -230 -241 -244
-66 -20 -94 8 -66 67 15 31 20 34 62 34 87 0 135 35 135 98 0 95 -142 77 -232
-29 -57 -68 -121 -109 -170 -109 -45 0 -56 17 -38 60 11 27 17 30 55 30 86 0
145 36 145 90 0 89 -130 76 -241 -24 -52 -46 -136 -106 -151 -106 -4 0 19 34
52 76 62 78 75 118 46 147 -8 8 -14 22 -13 32 5 46 -64 43 -71 -3 -3 -21 -89
-97 -191 -170 -58 -42 -70 -40 -32 6 102 121 121 150 107 161 -7 6 -30 11 -52
11 -21 1 -66 2 -99 2 -68 2 -97 -10 -170 -71 -127 -105 -272 -127 -192 -29 24
29 86 78 99 78 4 0 8 -9 8 -19 0 -39 69 -35 84 5 9 23 -18 60 -46 66 -13 2
-43 0 -68 -4z m320 -79 c0 -25 -86 -111 -130 -129 -53 -22 -56 0 -10 59 63 80
140 118 140 70z m570 -65 c0 -20 -25 -44 -56 -54 -58 -20 -59 5 0 41 30 18 56
25 56 13z m240 -45 c0 -24 -22 -48 -56 -59 -46 -15 -54 -7 -23 26 33 36 79 55
79 33z"/>
</g>
</svg>
