<?xml version="1.0" encoding="UTF-8" standalone="no"?> <svg width="512" height="512" viewBox="0 0 512 512" fill="none" xmlns="http://www.w3.org/2000/svg">
<path fill-rule="evenodd" clip-rule="evenodd" d="M40 152C40 147.582 43.5817 144 48 144H428C434.627 144 440 149.373 440 156C440 162.627 434.627 168 428 168H424H368C363.582 168 360 171.582 360 176V232C360 236.418 363.582 240 368 240H424H464C468.418 240 472 243.582 472 248V320C472 324.418 468.418 328 464 328H439.336C435.528 305.298 415.784 288 392 288C368.216 288 348.472 305.298 344.664 328H336V176C336 171.582 332.418 168 328 168L256 168C251.582 168 248 171.582 248 176V256H40V152ZM40 272H248V328H151.336C147.528 305.298 127.784 288 104 288C80.216 288 60.4723 305.298 56.6637 328H48C43.5817 328 40 324.418 40 320V272ZM464 344H439.336C435.528 366.702 415.784 384 392 384C368.216 384 348.472 366.702 344.664 344H151.336C147.528 366.702 127.784 384 104 384C80.216 384 60.4723 366.702 56.6637 344H48C34.7451 344 24 333.255 24 320V152C24 138.745 34.7452 128 48 128H428C443.464 128 456 140.536 456 156C456 170.106 445.569 181.776 432 183.716V224H464C477.255 224 488 234.745 488 248V320C488 333.255 477.255 344 464 344ZM416 224V184H376V224H416ZM320 184V328H300V184H320ZM284 184V328H264V184H284ZM152 176C152 171.582 155.582 168 160 168H216C220.418 168 224 171.582 224 176V232C224 236.418 220.418 240 216 240H160C155.582 240 152 236.418 152 232V176ZM168 184V224H208V184H168ZM72 168C67.5817 168 64 171.582 64 176V232C64 236.418 67.5817 240 72 240H128C132.418 240 136 236.418 136 232V176C136 171.582 132.418 168 128 168H72ZM80 224V184H120V224H80ZM72 336C72 318.327 86.3269 304 104 304C121.673 304 136 318.327 136 336C136 353.673 121.673 368 104 368C86.3269 368 72 353.673 72 336ZM392 304C374.327 304 360 318.327 360 336C360 353.673 374.327 368 392 368C409.673 368 424 353.673 424 336C424 318.327 409.673 304 392 304ZM440 288C448.837 288 456 280.837 456 272C456 263.163 448.837 256 440 256C431.163 256 424 263.163 424 272C424 280.837 431.163 288 440 288Z" fill="url(#paint0_linear)"/>
<defs>
<linearGradient id="paint0_linear" x1="64" y1="56" x2="448" y2="440" gradientUnits="userSpaceOnUse">
<stop stop-color="#FF003D"/>
<stop offset="1" stop-color="#3D00EB"/>
</linearGradient>
</defs>
</svg>
